<?xml version="1.0" encoding="UTF-8"?>
<svg version="1.1" xmlns="http://www.w3.org/2000/svg" width="200" height="68">
<path d="M0 0 C0.99 14.355 0.99 14.355 2 29 C3.32 28.01 4.64 27.02 6 26 C9.234375 25.26953125 9.234375 25.26953125 12.75 24.8125 C13.92046875 24.65394531 15.0909375 24.49539062 16.296875 24.33203125 C17.18890625 24.22246094 18.0809375 24.11289062 19 24 C19.495 22.515 19.495 22.515 20 21 C32.51823648 21.03387885 32.51823648 21.03387885 36.04296875 23.33203125 C37.80725747 25.45849067 39 27.18035385 39 30 C39.66 30 40.32 30 41 30 C41.4021875 28.8553125 41.4021875 28.8553125 41.8125 27.6875 C43.03094961 24.92995614 43.59899211 23.76073912 46 22 C49.35546875 21.48828125 49.35546875 21.48828125 53.1875 21.3125 C55.09595703 21.21388672 55.09595703 21.21388672 57.04296875 21.11328125 C58.01878906 21.07589844 58.99460938 21.03851562 60 21 C59.56340616 25.95115996 56.98662248 28.9840954 53.9375 32.6875 C50.42535491 36.41477339 50.42535491 36.41477339 49 41 C50.24256429 42.84650833 51.54377707 44.65385078 52.875 46.4375 C59 54.68100358 59 54.68100358 59 58 C56.74937546 57.96690258 54.49926535 57.89742124 52.25 57.8125 C50.99703125 57.77769531 49.7440625 57.74289063 48.453125 57.70703125 C45 57 45 57 42.546875 54.44921875 C42.03640625 53.64097656 41.5259375 52.83273438 41 52 C37.90184871 52.67560592 37.90184871 52.67560592 36.76171875 55.015625 C35 57 35 57 31.64453125 57.609375 C30.37996094 57.65578125 29.11539063 57.7021875 27.8125 57.75 C26.54019531 57.80671875 25.26789063 57.8634375 23.95703125 57.921875 C22.98121094 57.94765625 22.00539063 57.9734375 21 58 C21.33 56.35 21.66 54.7 22 53 C21.071875 53.33 20.14375 53.66 19.1875 54 C14.17872919 55.45448968 9.16603343 55.14807102 4 55 C1.07788467 54.94248143 1.07788467 54.94248143 -1.49609375 55.2890625 C-9.71435757 56.22766899 -18.86804411 56.75463726 -26 52 C-27.87195522 52.73541098 -29.74175939 53.47738691 -31.59375 54.26171875 C-35.97223019 55.60511608 -40.46797517 55.22493506 -45 55 C-45 57.31 -45 59.62 -45 62 C-48.3818663 62 -48.96700411 61.55473195 -51.57421875 59.59375 C-52.24130859 59.09746094 -52.90839844 58.60117187 -53.59570312 58.08984375 C-54.28599609 57.56519531 -54.97628906 57.04054687 -55.6875 56.5 C-56.38939453 55.97535156 -57.09128906 55.45070312 -57.81445312 54.91015625 C-59.54774782 53.61313301 -61.27450715 52.3073845 -63 51 C-62.98839844 51.63808594 -62.97679687 52.27617188 -62.96484375 52.93359375 C-62.95582031 53.75988281 -62.94679687 54.58617187 -62.9375 55.4375 C-62.92589844 56.26121094 -62.91429687 57.08492187 -62.90234375 57.93359375 C-63 60 -63 60 -64 61 C-66.18639453 61.07258946 -68.37500389 61.08373783 -70.5625 61.0625 C-72.35880859 61.04896484 -72.35880859 61.04896484 -74.19140625 61.03515625 C-75.11824219 61.02355469 -76.04507813 61.01195312 -77 61 C-77.66 57.04 -78.32 53.08 -79 49 C-80.299375 49.99 -81.59875 50.98 -82.9375 52 C-86.98914935 54.67141715 -89.98228337 55.93081745 -94.8515625 55.59765625 C-98.72856132 54.51914567 -101.48367361 52.07800638 -104 49 C-105.79223217 43.6233035 -105.94958659 37.42672129 -103.875 32.125 C-99.78194982 27.48620979 -96.20770987 24.36698472 -90.1015625 23.0703125 C-86.29416468 22.94292744 -83.41726229 24.41341394 -80 26 C-79.67 23.69 -79.34 21.38 -79 19 C-80.32 19 -81.64 19 -83 19 C-83.375 16.25 -83.375 16.25 -83 13 C-78.68490552 9.31638276 -72.76687761 6 -67 6 C-66.04006987 12.03956039 -65.67315729 18.01907271 -65.39453125 24.12304688 C-65.27245759 28.19325892 -65.27245759 28.19325892 -64 32 C-63.21625 31.505 -62.4325 31.01 -61.625 30.5 C-58.10372258 29.04291969 -56.71331396 28.88971338 -53.0625 29.0625 C-48.69156866 29.22510905 -46.60931916 28.37429286 -42.921875 25.8984375 C-38.94121525 24.03755997 -34.27611948 24.43683572 -30 25 C-28.65166567 25.63578042 -27.31462452 26.29715962 -26 27 C-21.21283874 26.58967189 -16.51722763 24.55069008 -12 23 C-12 17.06 -12 11.12 -12 5 C-3.375 -0 -3.375 -0 0 0 Z M25 31 C23.9463606 32.30756357 22.93146366 33.64651756 21.9375 35 C21.38964844 35.7425 20.84179688 36.485 20.27734375 37.25 C19.64505859 38.11625 19.64505859 38.11625 19 39 C20.3921875 40.1446875 20.3921875 40.1446875 21.8125 41.3125 C23.98276101 43.11848552 26.05568065 44.9476629 28 47 C29.32 45.02 30.64 43.04 32 41 C30.34784004 37.42032008 28.26875648 34.22017048 26 31 C25.67 31 25.34 31 25 31 Z M-92 32 C-92.38133299 33.9914056 -92.71325582 35.99279077 -93 38 C-91.87465895 39.35618499 -91.87465895 39.35618499 -88.9375 39.0625 C-87.968125 39.041875 -86.99875 39.02125 -86 39 C-86 38.01 -86 37.02 -86 36 C-86.99 36 -87.98 36 -89 36 C-89.33 34.68 -89.66 33.36 -90 32 C-90.66 32 -91.32 32 -92 32 Z M-15 32 C-16.29633621 33.06645115 -16.29633621 33.06645115 -16.0625 35.5625 C-16.041875 36.366875 -16.02125 37.17125 -16 38 C-14.68 38.33 -13.36 38.66 -12 39 C-12.61277612 36.03824877 -13.25372522 34.61941217 -15 32 Z M-41 35 C-41.99 36.485 -41.99 36.485 -43 38 C-42.67 38.99 -42.34 39.98 -42 41 C-39.65712582 38.32752366 -39.65712582 38.32752366 -39 35 C-39.66 35 -40.32 35 -41 35 Z M8 35 C7.34 36.65 6.68 38.3 6 40 C6.66 40 7.32 40 8 40 C9.6446674 37.53673288 9.6446674 37.53673288 11 35 C10.01 35 9.02 35 8 35 Z M-55.5625 39.5 C-56.036875 39.995 -56.51125 40.49 -57 41 C-56.34 42.32 -55.68 43.64 -55 45 C-54.34 45 -53.68 45 -53 45 C-53 42.69 -53 40.38 -53 38 C-54.24076302 37.88457803 -54.24076302 37.88457803 -55.5625 39.5 Z M17 40 C17 43 17 43 17 43 Z " fill="#FFE135" transform="translate(137,3)"/>
<path d="M0 0 C1.29808594 -0.02578125 2.59617187 -0.0515625 3.93359375 -0.078125 C7.75646186 0.26753799 9.56069546 0.91828976 12.5625 3.25 C14.5625 6.25 14.5625 6.25 14.42578125 9.12109375 C13.4472465 12.66772874 12.1286048 14.52789957 9.75 17.3125 C8.71939453 18.53646484 8.71939453 18.53646484 7.66796875 19.78515625 C5.5625 22.25 5.5625 22.25 3.19140625 24.640625 C1.19616516 27.20908465 1.19616516 27.20908465 2.046875 30.51171875 C2.46453125 31.64222656 2.8821875 32.77273437 3.3125 33.9375 C5.5625 40.22468354 5.5625 40.22468354 5.5625 42.25 C3.5825 42.745 3.5825 42.745 1.5625 43.25 C1.5625 43.91 1.5625 44.57 1.5625 45.25 C-0.0875 45.91 -1.7375 46.57 -3.4375 47.25 C-4.73051051 43.70882251 -6.02166782 40.16697205 -7.3125 36.625 C-7.85970703 35.12646484 -7.85970703 35.12646484 -8.41796875 33.59765625 C-10.1534586 28.83294775 -11.8338757 24.0608729 -13.4375 19.25 C-13.7675 18.59 -14.0975 17.93 -14.4375 17.25 C-15.4275 16.92 -16.4175 16.59 -17.4375 16.25 C-18.60546875 13.74609375 -18.60546875 13.74609375 -19.625 10.6875 C-20.14126953 9.16962891 -20.14126953 9.16962891 -20.66796875 7.62109375 C-20.92191406 6.83863281 -21.17585938 6.05617188 -21.4375 5.25 C-19.85550369 4.60089846 -18.27184276 3.95585306 -16.6875 3.3125 C-15.80578125 2.95285156 -14.9240625 2.59320313 -14.015625 2.22265625 C-9.22179534 0.41407506 -5.15934826 0.06135994 0 0 Z M-2.4375 12.25 C-2.4375 13.9 -2.4375 15.55 -2.4375 17.25 C-0.7875 15.6 0.8625 13.95 2.5625 12.25 C0.9125 12.25 -0.7375 12.25 -2.4375 12.25 Z " fill="#FFE135" transform="translate(24.4375,11.75)"/>
</svg>
